<svg width="13" height="14" viewBox="0 0 13 14" fill="none" xmlns="http://www.w3.org/2000/svg">
<path d="M8.89518 1.01813C8.28705 0.361563 7.43768 0 6.50018 0C5.55768 0 4.70549 0.359375 4.10018 1.01187C3.4883 1.67156 3.19018 2.56813 3.26018 3.53625C3.39893 5.44625 4.85237 7 6.50018 7C8.14799 7 9.59893 5.44656 9.73987 3.53687C9.8108 2.5775 9.5108 1.68281 8.89518 1.01813ZM12.0002 14H1.00018C0.856199 14.0019 0.713612 13.9716 0.582792 13.9115C0.451973 13.8513 0.336211 13.7627 0.243929 13.6522C0.0408037 13.4094 -0.0410713 13.0778 0.0195537 12.7425C0.283304 11.2794 1.10643 10.0503 2.40018 9.1875C3.54955 8.42156 5.00549 8 6.50018 8C7.99487 8 9.4508 8.42188 10.6002 9.1875C11.8939 10.05 12.7171 11.2791 12.9808 12.7422C13.0414 13.0775 12.9596 13.4091 12.7564 13.6519C12.6642 13.7625 12.5484 13.8511 12.4176 13.9113C12.2868 13.9715 12.1442 14.0018 12.0002 14Z" fill="white"/>
</svg>
